<?xml version="1.0" encoding="utf-8"?>
<!-- Generator: Adobe Illustrator 27.3.1, SVG Export Plug-In . SVG Version: 6.00 Build 0)  -->
<svg version="1.1" xmlns="http://www.w3.org/2000/svg" xmlns:xlink="http://www.w3.org/1999/xlink" x="0px" y="0px"
	 viewBox="0 0 1920 850" style="enable-background:new 0 0 1920 850;" xml:space="preserve">
<style type="text/css">
	.st0{display:none;}
	.st1{display:inline;}
	.st2{clip-path:url(#SVGID_00000090268285939666053090000013233236527834683017_);}
	.st3{opacity:0.88;}
	.st4{fill:url(#SVGID_00000064333013803468959240000010054809875152869779_);}
	.st5{fill:#813588;}
	.st6{display:none;opacity:0.11;}
	.st7{display:inline;fill-rule:evenodd;clip-rule:evenodd;fill:url(#SVGID_00000085232537803480563880000006117147182140955291_);}
	.st8{fill-rule:evenodd;clip-rule:evenodd;fill:url(#SVGID_00000047040938190347124320000009443725065643315606_);}
	.st9{fill-rule:evenodd;clip-rule:evenodd;fill:url(#SVGID_00000147912159744596086760000006971721876824031896_);}
	.st10{fill-rule:evenodd;clip-rule:evenodd;fill:url(#SVGID_00000099629717083300810280000004321673513064551336_);}
	.st11{display:none;opacity:0.1;}
	.st12{display:inline;fill-rule:evenodd;clip-rule:evenodd;fill:url(#SVGID_00000136392907762237199980000012692011732578473395_);}
	.st13{display:inline;fill-rule:evenodd;clip-rule:evenodd;fill:#FFC6F7;}
	.st14{opacity:0.6;}
	.st15{fill-rule:evenodd;clip-rule:evenodd;fill:url(#SVGID_00000111876046502141846220000013209058506731931285_);}
	.st16{fill-rule:evenodd;clip-rule:evenodd;fill:url(#SVGID_00000167395339672713406660000006009585019771333560_);}
	.st17{fill-rule:evenodd;clip-rule:evenodd;fill:url(#SVGID_00000114071719522170527830000013995936551234428053_);}
	.st18{display:inline;fill-rule:evenodd;clip-rule:evenodd;fill:url(#SVGID_00000145044775075447213120000014203822103644599466_);}
	.st19{display:inline;opacity:0.2;}
	.st20{fill-rule:evenodd;clip-rule:evenodd;fill:#FFBCF6;}
	.st21{display:inline;fill-rule:evenodd;clip-rule:evenodd;fill:url(#SVGID_00000075851104609749376290000012769937915469040038_);}
	.st22{fill-rule:evenodd;clip-rule:evenodd;fill:url(#SVGID_00000152263210388047434690000006657402979929323454_);}
	.st23{display:inline;fill-rule:evenodd;clip-rule:evenodd;fill:#CA64D4;}
	.st24{display:inline;fill-rule:evenodd;clip-rule:evenodd;fill:url(#SVGID_00000007412004361285985390000017642978068219942797_);}
	.st25{display:inline;fill-rule:evenodd;clip-rule:evenodd;fill:url(#SVGID_00000179624978940940467650000014458785915438537148_);}
	.st26{display:inline;fill-rule:evenodd;clip-rule:evenodd;fill:url(#SVGID_00000067214947437798918370000008832655969620691090_);}
	.st27{fill:#FFFFFF;}
</style>
<g id="Layer_1" class="st0">
	<g class="st1">
		<defs>
			<rect id="SVGID_1_" width="1920" height="850"/>
		</defs>
		<clipPath id="SVGID_00000001628195400166390230000009402534390744374918_">
			<use xlink:href="#SVGID_1_"  style="overflow:visible;"/>
		</clipPath>
		<g style="clip-path:url(#SVGID_00000001628195400166390230000009402534390744374918_);">
			<g class="st3">
				
					<linearGradient id="SVGID_00000166645779447389839620000016504890027465090954_" gradientUnits="userSpaceOnUse" x1="654.0399" y1="819.9285" x2="654.2374" y2="820.9297" gradientTransform="matrix(1920 0 0 -850 -1255026 697879)">
					<stop  offset="0" style="stop-color:#933A9B;stop-opacity:0.98"/>
					<stop  offset="1" style="stop-color:#611068"/>
				</linearGradient>
				<rect style="fill:url(#SVGID_00000166645779447389839620000016504890027465090954_);" width="1920" height="850"/>
			</g>
			<g class="st3">
				<path class="st5" d="M1920,622.2c-322-56.7-421.3,228.4-738,191.4c-97.8-11.4-174-48.9-338-145.3c-164-96.4-267.5-94.6-526.7-78
					C58.2,607.1,10.7,486.1,0,466.6V0h1920V622.2z"/>
			</g>
			<g class="st6">
				
					<linearGradient id="SVGID_00000018932908646431971240000012857643271625510571_" gradientUnits="userSpaceOnUse" x1="641.5165" y1="820.6464" x2="640.9824" y2="821.3666" gradientTransform="matrix(49.049 0 0 -51.731 -31071.3203 42663.0039)">
					<stop  offset="0" style="stop-color:#A976FF"/>
					<stop  offset="1" style="stop-color:#FEA2CF"/>
				</linearGradient>
				
					<path style="display:inline;fill-rule:evenodd;clip-rule:evenodd;fill:url(#SVGID_00000018932908646431971240000012857643271625510571_);" d="
					M384.9,163.2l-7.5,4.1c-1.2,0.7-1.6,2.2-1,3.4l11.4,21.1c1.7,3.2,0.5,7.2-2.6,8.9c-3.2,1.7-7.1,0.6-8.8-2.6l-11.4-21.1
					c-0.6-1.2-2.1-1.6-3.3-1l-7.5,4.1c-1.2,0.7-1.6,2.2-1,3.4l11.1,20.6c5.3,9.8,17.4,13.4,27.1,8.1c9.7-5.3,13.3-17.6,8.1-27.3
					l-11.1-20.6c-0.4-0.7-1-1.1-1.7-1.3C386,162.8,385.4,162.9,384.9,163.2z"/>
				<g class="st1">
					
						<linearGradient id="SVGID_00000022530343389228925920000017895993888047938733_" gradientUnits="userSpaceOnUse" x1="612.6722" y1="821.9393" x2="613.7006" y2="824.0071" gradientTransform="matrix(15.737 0 0 -14.773 -9262.876 12319.0146)">
						<stop  offset="0" style="stop-color:#FF8C7B"/>
						<stop  offset="1" style="stop-color:#FFF29B"/>
					</linearGradient>
					<path style="fill-rule:evenodd;clip-rule:evenodd;fill:url(#SVGID_00000022530343389228925920000017895993888047938733_);" d="
						M378.8,176.2l12-6.8l-3.4-6.6c-0.6-1.2-2.2-1.7-3.4-1l-7.6,4.3c-1.2,0.7-1.7,2.3-1,3.5L378.8,176.2z"/>
				</g>
				<g class="st1">
					
						<linearGradient id="SVGID_00000101098271093137857860000004466133690969661109_" gradientUnits="userSpaceOnUse" x1="612.6722" y1="821.9393" x2="613.7006" y2="824.0071" gradientTransform="matrix(15.737 0 0 -14.773 -9285.8584 12332.2949)">
						<stop  offset="0" style="stop-color:#FF8C7B"/>
						<stop  offset="1" style="stop-color:#FFF29B"/>
					</linearGradient>
					<path style="fill-rule:evenodd;clip-rule:evenodd;fill:url(#SVGID_00000101098271093137857860000004466133690969661109_);" d="
						M355.9,189.4l12-6.8l-3.4-6.6c-0.6-1.2-2.2-1.7-3.4-1l-7.6,4.3c-1.2,0.7-1.7,2.3-1,3.5L355.9,189.4z"/>
				</g>
				<g class="st1">
					
						<linearGradient id="SVGID_00000029724397983388748690000008720010432288898745_" gradientUnits="userSpaceOnUse" x1="620.2859" y1="821.2747" x2="621.2631" y2="823.2396" gradientTransform="matrix(19.196 0 0 -27.217 -11547.8369 22520.4395)">
						<stop  offset="0" style="stop-color:#FF8C7B"/>
						<stop  offset="1" style="stop-color:#FFF29B"/>
					</linearGradient>
					<path style="fill-rule:evenodd;clip-rule:evenodd;fill:url(#SVGID_00000029724397983388748690000008720010432288898745_);" d="
						M352.4,146.6l5,17c0.2,0.8,1.2,1.3,2,0.9l3.3-1.4c0.7-0.3,1.5-0.1,1.9,0.6l6.5,9.8c0.1,0.2,0.4,0.1,0.4-0.2l-5.5-16.1
						c-0.3-0.8-1.1-1.2-1.9-0.9l-2.9,1.1c-0.7,0.3-1.5,0-1.9-0.6l-6.6-10.3C352.6,146.2,352.3,146.3,352.4,146.6z"/>
				</g>
			</g>
			<g class="st11">
				
					<linearGradient id="SVGID_00000085245061795864753750000015408624360312544679_" gradientUnits="userSpaceOnUse" x1="642.6649" y1="820.6164" x2="643.0233" y2="821.4069" gradientTransform="matrix(56.167 0 0 -45.148 -35804.3516 37519.8477)">
					<stop  offset="0" style="stop-color:#A976FF"/>
					<stop  offset="1" style="stop-color:#FEA2CF"/>
				</linearGradient>
				
					<path style="display:inline;fill-rule:evenodd;clip-rule:evenodd;fill:url(#SVGID_00000085245061795864753750000015408624360312544679_);" d="
					M275.1,439.4c-0.6,0.9-0.2,2.2,0.8,2.7l49.6,27.1c1,0.5,2.2,0.2,2.7-0.8c6.7-15.1,1.3-32.9-12.7-40.5c-4.1-2.2-8.5-3.4-12.9-3.5
					C291.9,424,281.3,429.5,275.1,439.4z M315.2,452.7l-20-10.9c-1-0.5-1.2-1.8-0.5-2.6c3.3-3.6,9.7-4.2,15.3-1.1
					c5.6,3.1,8.7,8.8,7.5,13.6c-0.2,0.8-0.9,1.2-1.6,1.2C315.7,452.9,315.4,452.9,315.2,452.7z"/>
				<path class="st13" d="M283.9,442.9L283.9,442.9c0.5,0.2,0.6,0.7,0.4,1.2l-1.4,2.5l-1.6-0.8l1.4-2.5
					C283,442.9,283.5,442.7,283.9,442.9z M296.8,449.7c0.4,0.2,0.6,0.7,0.4,1.1l-1.4,2.5l-1.6-0.8l1.4-2.5
					C295.8,449.6,296.3,449.5,296.8,449.7L296.8,449.7z M321.4,466.9l-1.6-0.8l1.4-2.5c0.2-0.4,0.7-0.6,1.2-0.3l0,0
					c0.4,0.2,0.6,0.7,0.4,1.1L321.4,466.9z M310,457.6c0.2-0.4,0.1-0.9-0.4-1.1l0,0c-0.4-0.2-0.9-0.1-1.2,0.3l-1.4,2.5l1.6,0.8
					L310,457.6z"/>
			</g>
			<g class="st11">
				<g class="st1">
					<g class="st14">
						
							<linearGradient id="SVGID_00000118366154188735405820000008191626924284133530_" gradientUnits="userSpaceOnUse" x1="614.3383" y1="821.0156" x2="616.475" y2="822.624" gradientTransform="matrix(16.493 0 0 -25.562 -8602.666 21197.5156)">
							<stop  offset="0" style="stop-color:#FF8C7B"/>
							<stop  offset="1" style="stop-color:#FFF29B"/>
						</linearGradient>
						
							<path style="fill-rule:evenodd;clip-rule:evenodd;fill:url(#SVGID_00000118366154188735405820000008191626924284133530_);" d="
							M1538.5,206.8l-8.8-8l16.5-16.8l-2.3,22.6C1543.7,207.4,1540.5,208.6,1538.5,206.8z"/>
					</g>
				</g>
				<g class="st1">
					<g class="st14">
						
							<linearGradient id="SVGID_00000007408824138400158720000008876850536492521633_" gradientUnits="userSpaceOnUse" x1="627.5724" y1="822.1014" x2="629.1298" y2="823.7137" gradientTransform="matrix(24.571 0 0 -16.812 -13908.1455 13999.8164)">
							<stop  offset="0" style="stop-color:#FF8C7B"/>
							<stop  offset="1" style="stop-color:#FFF29B"/>
						</linearGradient>
						
							<path style="fill-rule:evenodd;clip-rule:evenodd;fill:url(#SVGID_00000007408824138400158720000008876850536492521633_);" d="
							M1508.3,176.2l8.6,8.7l15-16.8l-22,2.5C1507.3,171,1506.4,174.3,1508.3,176.2z"/>
					</g>
				</g>
				<g class="st1">
					
						<linearGradient id="SVGID_00000080194049034586273850000005020132872255564697_" gradientUnits="userSpaceOnUse" x1="614.1901" y1="822.0176" x2="615.8286" y2="823.1392" gradientTransform="matrix(16.376 0 0 -16.358 -8543.8818 13647.1758)">
						<stop  offset="0" style="stop-color:#FF8C7B"/>
						<stop  offset="1" style="stop-color:#FFF29B"/>
					</linearGradient>
					<path style="fill-rule:evenodd;clip-rule:evenodd;fill:url(#SVGID_00000080194049034586273850000005020132872255564697_);" d="
						M1512.5,195.4l9,8.8c0.7,0.7,1.8,0.5,2.3-0.4l4.6-5.2l-10.9-10.4l-4.8,4.8C1511.9,193.6,1511.8,194.8,1512.5,195.4z"/>
				</g>
				
					<linearGradient id="SVGID_00000130627884083926676580000011562951671821417407_" gradientUnits="userSpaceOnUse" x1="640.06" y1="820.6976" x2="640.4734" y2="821.6124" gradientTransform="matrix(45.943 0 0 -46.6 -27877.1309 38441.3125)">
					<stop  offset="0" style="stop-color:#A976FF"/>
					<stop  offset="1" style="stop-color:#FEA2CF"/>
				</linearGradient>
				
					<path style="display:inline;fill-rule:evenodd;clip-rule:evenodd;fill:url(#SVGID_00000130627884083926676580000011562951671821417407_);" d="
					M1556.2,175.2l-2.1,2.2l-21.2,22.1c-1,1.1-2.7,1.1-3.8,0.1l-12.7-11.8c-1.1-1-1.1-2.7-0.1-3.7l21.2-22.1l0,0l2.1-2.2
					c5.4-5.7,13.5-7.4,20.5-5c0.1,0.2,0.1,0.3,0.2,0.5C1562.8,161.9,1561.5,169.6,1556.2,175.2z"/>
				<g class="st19">
					<path class="st20" d="M1543.8,164.4c-2.8,2.1-2.7,6.2,0.2,8.2c1.8,1.2,4.2,1.1,5.9-0.2c2.8-2.1,2.7-6.2-0.2-8.2
						C1547.9,163,1545.5,163.1,1543.8,164.4z"/>
				</g>
			</g>
			<g class="st11">
				
					<linearGradient id="SVGID_00000057131255788088486660000004709465698569712303_" gradientUnits="userSpaceOnUse" x1="637.5226" y1="820.6644" x2="638.1339" y2="821.5599" gradientTransform="matrix(38.994 0 0 -50.495 -23250.8301 41915.707)">
					<stop  offset="0" style="stop-color:#A976FF"/>
					<stop  offset="1" style="stop-color:#FEA2CF"/>
				</linearGradient>
				
					<path style="display:inline;fill-rule:evenodd;clip-rule:evenodd;fill:url(#SVGID_00000057131255788088486660000004709465698569712303_);" d="
					M1619.2,431.6c-0.4,0.8-0.1,1.8,0.6,2.3l-3.6,8.4c-0.5,1.1-1.5,1.8-2.6,2c-6.4,0.8-12.3,4.9-15,11.2c-4,9.4,0.6,20.1,10.2,24
					c9.6,3.9,20.5-0.6,24.5-9.9c2.7-6.3,1.5-13.2-2.5-18.3c-0.7-0.9-0.9-2.2-0.4-3.2l3.6-8.4c0.9,0.1,1.7-0.4,2.1-1.2
					c0.4-1-0.1-2.2-1.1-2.6l-13-5.3c-0.3-0.1-0.5-0.2-0.8-0.2C1620.3,430.3,1619.6,430.8,1619.2,431.6z"/>
				<g class="st1">
					
						<linearGradient id="SVGID_00000167363577413391362800000013126174617020484736_" gradientUnits="userSpaceOnUse" x1="637.1286" y1="820.8531" x2="637.6059" y2="822.7698" gradientTransform="matrix(37.981 0 0 -32.037 -22588.9336 26780.0449)">
						<stop  offset="0" style="stop-color:#FF8C7B"/>
						<stop  offset="1" style="stop-color:#FFF29B"/>
					</linearGradient>
					<path style="fill-rule:evenodd;clip-rule:evenodd;fill:url(#SVGID_00000167363577413391362800000013126174617020484736_);" d="
						M1597.8,456.7c-3.3,8.6,1,18.3,9.8,22.2c9.9,4.4,21.5,0.1,25.6-9.3c1.5-3.4,1.8-6.9,1.1-10.2c-0.3-1.6-1.2-3.1-2.6-4
						c-4.6-3.1-8.7-2.3-16-0.9c-3.9,0.7-11.3-0.8-11.7-5.8C1601.2,450.7,1599,453.4,1597.8,456.7z"/>
				</g>
				<path class="st23" d="M1612.6,461.3c-0.4,0.9,0.1,1.9,1,2.3c0.9,0.4,1.9-0.1,2.3-1c0.4-0.9-0.1-1.9-1-2.3
					C1614.1,460,1613,460.4,1612.6,461.3z"/>
				<path class="st23" d="M1607.5,466.7c-0.2,0.6,0,1.3,0.6,1.5c0.6,0.2,1.3,0,1.5-0.6s0-1.3-0.6-1.5
					C1608.4,465.8,1607.8,466.1,1607.5,466.7z"/>
				
					<linearGradient id="SVGID_00000110428921979789500150000002258100204195430067_" gradientUnits="userSpaceOnUse" x1="562.0125" y1="824.1484" x2="562.499" y2="825.0771" gradientTransform="matrix(7.09 0 0 -7.046 -2346.5901 6230.1611)">
					<stop  offset="0" style="stop-color:#A976FF"/>
					<stop  offset="1" style="stop-color:#FEA2CF"/>
				</linearGradient>
				
					<path style="display:inline;fill-rule:evenodd;clip-rule:evenodd;fill:url(#SVGID_00000110428921979789500150000002258100204195430067_);" d="
					M1643.2,421c0.6-1.9-0.4-3.8-2.3-4.4c-1.9-0.6-3.9,0.4-4.4,2.3c-0.6,1.9,0.4,3.8,2.3,4.4C1640.6,423.9,1642.6,422.8,1643.2,421z
					"/>
				
					<linearGradient id="SVGID_00000128463582175133828700000012173765337741226379_" gradientUnits="userSpaceOnUse" x1="469.7699" y1="828.2642" x2="470.2564" y2="829.1929" gradientTransform="matrix(3.545 0 0 -3.523 -35.9711 3343.0071)">
					<stop  offset="0" style="stop-color:#A976FF"/>
					<stop  offset="1" style="stop-color:#FEA2CF"/>
				</linearGradient>
				
					<path style="display:inline;fill-rule:evenodd;clip-rule:evenodd;fill:url(#SVGID_00000128463582175133828700000012173765337741226379_);" d="
					M1630.2,425.1c-1,0-1.7-0.9-1.7-1.8c0-1,0.9-1.7,1.8-1.7c1,0,1.7,0.9,1.7,1.8C1632,424.4,1631.1,425.2,1630.2,425.1z"/>
				
					<linearGradient id="SVGID_00000083788508848465782660000017855774845593326224_" gradientUnits="userSpaceOnUse" x1="377.4883" y1="832.3782" x2="377.9748" y2="833.3069" gradientTransform="matrix(2.363 0 0 -2.349 739.3581 2385.999)">
					<stop  offset="0" style="stop-color:#A976FF"/>
					<stop  offset="1" style="stop-color:#FEA2CF"/>
				</linearGradient>
				
					<path style="display:inline;fill-rule:evenodd;clip-rule:evenodd;fill:url(#SVGID_00000083788508848465782660000017855774845593326224_);" d="
					M1632.8,428.8c-0.5-0.5-1.2-0.5-1.7,0c-0.5,0.5-0.5,1.2,0,1.7c0.5,0.5,1.2,0.5,1.7,0C1633.2,430,1633.2,429.3,1632.8,428.8z"/>
			</g>
		</g>
	</g>
</g>
<g id="Layer_2">
	<path class="st27" d="M1920,565.6V850H0V553.1c35.5,52.4,109.2,106.5,260.7,78.4c267.9-49.7,292.6-34.1,481.5,65
		c188.9,99.1,325.2,137.8,466.1,91.4c140.9-46.5,131.6-88.3,303.5-71.2C1666.8,732,1704.7,594.8,1920,565.6z"/>
</g>
</svg>
