<?xml version="1.0" encoding="utf-8"?>
<!-- Generator: Adobe Illustrator 27.3.1, SVG Export Plug-In . SVG Version: 6.00 Build 0)  -->
<svg version="1.1" id="Layer_1" xmlns="http://www.w3.org/2000/svg" xmlns:xlink="http://www.w3.org/1999/xlink" x="0px" y="0px"
	 viewBox="0 0 2560 880" style="enable-background:new 0 0 2560 880;" xml:space="preserve">
<style type="text/css">
	.st0{opacity:0.9;fill:url(#SVGID_1_);stroke:#000000;stroke-miterlimit:10;enable-background:new    ;}
	.st1{fill:url(#SVGID_00000080918325256508599240000014959410422775478942_);stroke:#000000;stroke-miterlimit:10;}
	.st2{display:none;}
	.st3{display:inline;}
	.st4{fill:#FFFFFF;}
	.st5{font-family:'Perpetua';}
	.st6{font-size:122px;}
</style>
<g id="Layer_1_00000131337132390276525350000007363352127851829905_">
	
		<linearGradient id="SVGID_1_" gradientUnits="userSpaceOnUse" x1="0" y1="480.225" x2="2560.01" y2="480.225" gradientTransform="matrix(1 0 0 -1 0 880)">
		<stop  offset="0" style="stop-color:#E31F8F"/>
		<stop  offset="1" style="stop-color:#7F132A"/>
	</linearGradient>
	<path class="st0" d="M0,667.9c395.9,120.7,700.8,119.4,873,106c17-1.3,290.3-23.2,504-70.5c7.2-1.6,29.1-6.7,59.2-12.6
		c0,0,127.8-25.1,255.5-31.8c199-10.5,403.5,28.3,513.8,49.8c91.4,17.8,213.1,45.7,354.6,90.7c0-266.5,0-532.9,0-799.3
		c-853.3,0-1706.7,0-2560,0C0,222.7,0,445.3,0,667.9z"/>
	<g>
		<g>
			<g>
				<defs>
					<path id="SVGID_00000116197280360509591470000012152138127878459817_" d="M0-54c0,81.4,0,162.9,0,244.3
						c132.2,216.1,340.8,471.7,639.2,522c253.5,42.7,414.2-89.3,682.7-154.7c271.7-66.1,674.4-69,1238.1,224
						c0-278.6,0-557.1,0-835.7C1706.7-54,853.3-54,0-54z"/>
				</defs>
				<clipPath id="SVGID_00000053528626331062143380000003596336748520830135_">
					<use xlink:href="#SVGID_00000116197280360509591470000012152138127878459817_"  style="overflow:visible;"/>
				</clipPath>
			</g>
		</g>
	</g>
	
		<linearGradient id="SVGID_00000014604297252925316640000003501366061150318750_" gradientUnits="userSpaceOnUse" x1="2610.78" y1="562.33" x2="2610.78" y2="562.33" gradientTransform="matrix(1 0 0 -1 0 880)">
		<stop  offset="0" style="stop-color:#E31F8F"/>
		<stop  offset="1" style="stop-color:#7F132A"/>
	</linearGradient>
	<path style="fill:url(#SVGID_00000014604297252925316640000003501366061150318750_);stroke:#000000;stroke-miterlimit:10;" d="
		M2610.8,317.7"/>
</g>
<g id="Layer_2_00000091005399421531084110000002373546524247370414_" class="st2">
	<g class="st3">
		
			<image style="overflow:visible;opacity:0.75;enable-background:new    ;" width="3457" height="680" xlink:href="5D41D626.png"  transform="matrix(0.24 0 0 0.24 67.68 130.68)">
		</image>
		<g>
			<text transform="matrix(1 0 0 1 75.6667 234.7778)" class="st4 st5 st6">Coder &amp; AccoTax</text>
		</g>
	</g>
</g>
</svg>
